# xmcd CD database file
#
# Track frame offsets:
#	150
#	27332
#	62442
#	96697
#	135592
#
# Disc length: 2397 seconds
#
# Revision: 0
# Processed by: cddbd v1.5.2PL0 Copyright (c) Steve Scherf et al.
# Submitted via: CDex 1.79
#
DISCID=40095b05
DTITLE=Herbie Mann - Flautista!
DYEAR=1900
DGENRE=Jazz
TTITLE0=Todos Locos
TTITLE1=Cuban Potato Chips
TTITLE2=Come On Mule
TTITLE3=The Amazon River
TTITLE4=Caravan
EXTD=
EXTT0=
EXTT1=
EXTT2=
EXTT3=
EXTT4=
PLAYORDER=
